<svg width="29" height="28" viewBox="0 0 29 28" fill="none" xmlns="http://www.w3.org/2000/svg">
<path d="M14.4458 0.5C9.18078 0.5 4.89453 4.75925 4.89453 9.9905C4.89453 11.759 5.38728 13.487 6.31878 14.9788L13.899 27.122C14.0475 27.3515 14.2973 27.4932 14.574 27.4932H14.5808C14.8575 27.4932 15.114 27.3448 15.2558 27.1085L22.6403 14.8505C23.5245 13.3858 23.9903 11.705 23.9903 9.9905C23.997 4.75925 19.7108 0.5 14.4458 0.5ZM21.2835 14.0405L14.5673 25.1848L7.67553 14.1485C6.89928 12.9065 6.48078 11.4688 6.48078 9.9905C6.48078 5.63 10.0583 2.07275 14.4458 2.07275C18.8333 2.07275 22.4108 5.63 22.4108 9.9905C22.4108 11.4215 22.0125 12.8255 21.2835 14.0405Z" fill="#0033A0"/>
<path d="M14.4451 5.24609C11.8126 5.24609 9.67285 7.37234 9.67285 9.99134C9.67285 12.5901 11.7789 14.7366 14.4451 14.7366C17.1451 14.7366 19.2174 12.5631 19.2174 9.99134C19.2174 7.37909 17.0776 5.24609 14.4451 5.24609ZM14.4451 13.1706C12.6834 13.1706 11.2524 11.7463 11.2524 9.99809C11.2524 8.25659 12.6901 6.82559 14.4451 6.82559C16.2001 6.82559 17.6311 8.25659 17.6311 9.99809C17.6311 11.7193 16.2406 13.1706 14.4451 13.1706Z" fill="#0033A0"/>
</svg>
