<svg xmlns="http://www.w3.org/2000/svg" width="640" height="640" viewBox="0 0 640 640" version="1.1">
	<path d="M 50 74.583 C 38.445 76.619, 34.734 77.489, 26.600 80.070 C 19.826 82.219, 14.965 83.081, 8.655 83.254 L -0 83.490 -0 96.745 L 0 110 6.750 110.009 C 12.382 110.017, 14.350 110.506, 18.632 112.962 C 25.537 116.923, 31.237 123.763, 36.163 134 C 43.211 148.647, 44.202 150.370, 48.580 155.571 C 51.362 158.876, 56.446 162.842, 63.174 166.957 C 68.854 170.430, 76.650 175.629, 80.500 178.509 C 96.531 190.505, 100.762 191.681, 161.500 201.028 C 213.274 208.996, 230.512 212.808, 261 223.031 C 286.595 231.614, 299.215 234.022, 318.322 233.969 C 339.937 233.908, 359.027 230.280, 384.500 221.390 C 407.589 213.331, 432.573 208.093, 489 199.478 C 538.340 191.946, 545.947 189.602, 561.563 177.120 C 562.148 176.653, 563.575 175.763, 564.735 175.142 C 565.895 174.521, 567.442 173.426, 568.172 172.709 C 568.902 171.991, 573.337 169.093, 578.028 166.269 C 590.355 158.846, 594.099 154.615, 601.192 140.089 C 612.651 116.622, 621.121 109, 635.743 109 L 641 109 640.985 95.250 C 640.975 86.868, 640.623 82.046, 640.083 82.900 C 638.681 85.114, 625.137 83.676, 614.401 80.174 C 609.397 78.541, 602.647 76.612, 599.401 75.888 C 591.572 74.141, 571.722 74.374, 560.500 76.344 C 555.550 77.214, 537.876 79.741, 521.225 81.962 C 483.130 87.041, 454.912 92.684, 428.500 100.504 C 419.629 103.130, 395.433 107.960, 378.500 110.483 C 372.450 111.385, 365.250 112.543, 362.500 113.057 C 342.248 116.843, 299.942 116.825, 278 113.021 C 274.975 112.497, 267.775 111.341, 262 110.454 C 244.421 107.752, 220.950 103.042, 212.500 100.522 C 188.455 93.349, 154.610 86.476, 124 82.549 C 112.725 81.103, 96.300 78.816, 87.500 77.468 C 71.609 75.033, 54.790 73.739, 50 74.583 M 0.395 96.500 C 0.396 104.200, 0.553 107.218, 0.743 103.206 C 0.934 99.195, 0.932 92.895, 0.741 89.206 C 0.549 85.518, 0.393 88.800, 0.395 96.500 M 171.500 281.507 C 157.149 283.643, 147.814 290.390, 146.428 299.629 C 145.629 304.962, 146.243 307.085, 152.465 320.500 C 154.761 325.450, 157.661 332.200, 158.909 335.500 C 165.381 352.609, 169.465 357.415, 185.178 366.407 C 190.855 369.655, 200 375.258, 205.500 378.857 C 221.822 389.538, 230.100 392.274, 266.500 399.022 C 310.043 407.093, 330.898 407.084, 374 398.975 C 412.064 391.814, 419.625 389.264, 437.322 377.622 C 442.724 374.069, 450.930 369.036, 455.557 366.439 C 470.896 357.830, 474.654 353.404, 482.015 335.279 C 484.647 328.801, 488.175 320.517, 489.855 316.871 C 494.304 307.218, 495.389 302.160, 494.066 297.245 C 491.148 286.407, 471.957 278.767, 453.012 280.901 C 440.921 282.263, 394.998 293.089, 379 298.349 C 348.164 308.488, 342.836 309.361, 315.500 308.758 C 290.566 308.207, 286.776 307.386, 247 293.925 C 238.888 291.179, 192.464 281.224, 185.500 280.737 C 182.200 280.506, 175.900 280.853, 171.500 281.507 M 305.500 471.056 C 290.751 472.707, 281.884 477.662, 277.347 486.785 C 274.602 492.306, 274.894 506.609, 277.903 514 C 283.145 526.872, 293.728 539.451, 303 543.828 C 307.888 546.136, 309.723 546.423, 319.500 546.413 C 328.628 546.404, 331.498 546.008, 336.365 544.086 C 349.825 538.771, 363.600 518.759, 365.618 501.589 C 367.052 489.392, 359.481 477.389, 348 473.655 C 337.961 470.391, 320.802 469.342, 305.500 471.056" stroke="none" fill="black" fill-rule="evenodd"/>
</svg>