<svg width="23" height="24" viewBox="0 0 23 24" fill="none" xmlns="http://www.w3.org/2000/svg">
<path fill-rule="evenodd" clip-rule="evenodd" d="M16.0454 3.38136C19.4321 6.93486 19.6966 12.5296 16.8274 16.3994L21.8759 21.3501C22.3704 21.8331 22.3876 22.6266 21.9104 23.1269C21.4561 23.6099 20.6914 23.6386 20.2026 23.1786C20.1911 23.1729 20.1854 23.1614 20.1739 23.1556L15.1599 18.1474C11.4741 21.1546 6.14388 20.8786 2.75137 17.3251C-0.917125 13.4784 -0.917125 7.23386 2.75137 3.38136C6.41988 -0.47114 12.3769 -0.46539 16.0454 3.38136ZM4.41313 5.12361C7.16738 2.23711 11.6294 2.23711 14.3836 5.12361C17.1379 8.01011 17.1379 12.6906 14.3836 15.5829C11.6294 18.4694 7.16738 18.4694 4.41313 15.5829C1.65887 12.6964 1.65887 8.01586 4.41313 5.12361Z" fill="#0033A0"/>
</svg>
